<?xml version="1.0" standalone="no"?>
<!DOCTYPE svg PUBLIC "-//W3C//DTD SVG 20010904//EN"
 "http://www.w3.org/TR/2001/REC-SVG-20010904/DTD/svg10.dtd">
<svg version="1.0" xmlns="http://www.w3.org/2000/svg"
 width="360.000000pt" height="300.000000pt" viewBox="0 0 360.000000 300.000000"
 preserveAspectRatio="xMidYMid meet">
<metadata>
Created by potrace 1.16, written by Peter Selinger 2001-2019
</metadata>
<g transform="translate(0.000000,300.000000) scale(0.100000,-0.100000)"
fill="#000000" stroke="none">
<path d="M2268 2943 c-29 -19 -34 -28 -25 -37 6 -7 19 -11 29 -8 9 2 61 -5
115 -17 54 -11 145 -28 203 -37 58 -8 155 -26 215 -39 61 -13 196 -40 300 -59
105 -20 228 -43 275 -52 47 -9 98 -20 113 -25 24 -7 28 -6 25 8 -4 21 -27 27
-233 63 -93 16 -217 39 -275 50 -180 35 -259 49 -450 81 -102 17 -200 33 -217
36 -37 6 -41 14 -18 33 13 11 13 15 3 21 -17 12 -18 11 -60 -18z"/>
<path d="M2164 2838 c-33 -35 -98 -108 -144 -163 -46 -55 -87 -102 -90 -105
-3 -3 -18 -22 -34 -43 -41 -56 -83 -97 -99 -97 -7 0 -56 43 -108 97 -133 136
-181 182 -234 227 l-47 39 -76 -18 c-42 -9 -106 -23 -141 -31 -35 -7 -94 -23
-130 -34 -36 -11 -151 -42 -256 -70 -182 -49 -361 -100 -490 -140 -66 -20
-155 -44 -225 -59 -45 -10 -45 -10 15 -6 33 2 132 25 220 50 156 46 202 59
450 125 244 65 303 81 425 111 218 53 201 53 263 0 30 -25 114 -109 188 -186
l134 -139 -45 -12 c-43 -11 -306 -73 -400 -95 -25 -6 -61 -15 -80 -20 -28 -8
-214 -49 -280 -62 -8 -2 -24 -8 -35 -13 -11 -6 -35 -11 -53 -12 -18 -1 -58 -9
-90 -18 -31 -8 -70 -17 -87 -20 -90 -14 -213 -38 -237 -48 -15 -6 -32 -21 -38
-34 -13 -30 -138 -169 -252 -281 -87 -86 -148 -157 -148 -172 0 -11 117 -46
175 -53 114 -12 345 -45 354 -50 5 -3 12 -25 15 -48 17 -124 25 -211 25 -285
1 -79 18 -153 28 -125 5 13 -10 268 -23 393 l-6 56 53 -8 c30 -4 88 -15 129
-24 76 -15 270 -51 325 -60 17 -2 57 -9 90 -15 125 -23 135 -24 135 -8 0 11
-29 21 -114 37 -63 11 -123 21 -135 21 -11 0 -30 4 -43 10 -13 5 -84 18 -158
29 -74 11 -238 38 -365 60 -126 21 -268 44 -315 51 -47 7 -98 18 -115 25 l-30
11 125 131 c69 71 157 166 195 210 58 67 74 81 95 78 14 -3 111 -14 215 -25
175 -19 389 -52 525 -81 105 -22 146 -29 310 -54 195 -29 210 -32 210 -45 0
-5 -46 -65 -102 -132 -57 -68 -115 -140 -130 -160 -15 -20 -34 -42 -41 -50
-25 -25 -88 -130 -84 -141 3 -10 67 73 67 88 0 7 5 13 166 210 58 72 109 136
111 143 3 6 10 12 17 12 8 0 12 -122 13 -458 3 -594 11 -772 55 -1105 11 -87
18 -161 14 -164 -3 -3 -11 -1 -18 4 -7 5 -31 17 -53 25 -22 9 -101 45 -175 81
-74 36 -200 93 -280 126 -80 34 -181 80 -225 103 -44 22 -141 71 -215 109 -74
38 -144 69 -156 69 -19 0 -22 8 -27 68 -30 337 -34 362 -49 362 -7 0 -9 -18
-4 -57 13 -111 35 -333 35 -370 1 -17 7 -23 25 -23 13 0 89 -33 168 -74 78
-40 181 -93 228 -117 47 -24 105 -53 130 -63 25 -11 74 -31 110 -47 36 -15
133 -59 215 -99 318 -153 295 -144 311 -123 8 11 12 30 9 48 -3 17 -7 50 -10
75 -3 25 -10 72 -15 106 -5 33 -14 127 -20 210 -6 82 -13 160 -15 174 -14 77
-28 1150 -15 1150 3 0 21 -26 40 -57 19 -31 62 -90 95 -129 61 -74 108 -137
135 -184 8 -14 33 -51 55 -83 l40 -58 45 5 c25 2 63 12 85 22 22 10 45 19 50
19 32 4 109 32 184 67 47 22 187 74 311 115 124 41 229 79 235 84 5 5 13 9 17
9 10 0 2 -169 -18 -365 -11 -113 -13 -196 -7 -340 12 -282 28 -237 29 80 0
240 5 353 19 525 8 87 10 99 21 109 9 9 144 60 174 66 36 7 200 78 200 86 0
13 -11 11 -86 -17 -38 -14 -100 -37 -139 -50 -38 -14 -86 -31 -105 -39 -91
-37 -289 -108 -410 -148 -75 -24 -171 -61 -215 -82 -77 -37 -267 -108 -330
-123 -35 -9 -65 -5 -65 9 0 25 -180 281 -238 339 -29 29 -92 124 -92 140 0 5
11 10 24 10 14 0 27 4 30 8 3 5 58 24 123 42 65 17 145 40 178 50 33 9 98 25
145 34 98 20 226 48 353 76 48 11 100 20 116 20 15 0 91 16 167 35 76 20 160
38 186 41 46 6 47 5 72 -35 28 -44 243 -263 294 -300 50 -35 46 -6 -5 40 -98
87 -283 284 -283 300 0 10 -7 25 -15 33 -14 14 -14 19 7 48 13 18 25 35 28 38
3 3 30 34 60 70 30 36 61 69 67 73 7 4 13 12 13 17 0 6 8 18 18 29 85 91 192
223 192 238 0 15 -17 18 -22 4 -4 -12 -169 -208 -248 -296 -36 -39 -92 -105
-124 -146 l-59 -76 -146 23 c-174 27 -363 61 -561 102 -170 35 -323 59 -435
67 -44 4 -97 14 -116 23 l-37 17 150 175 c82 96 176 203 210 236 52 54 67 84
39 84 -4 0 -34 -28 -67 -62z m-347 -670 c1 -106 4 -217 6 -246 4 -43 2 -55
-11 -60 -9 -3 -18 0 -20 6 -2 7 -13 10 -25 7 -12 -3 -83 3 -157 15 -74 12
-155 23 -180 26 -25 2 -83 13 -130 24 -110 26 -355 65 -495 80 -312 32 -351
41 -260 59 58 12 198 41 300 63 28 5 93 21 145 33 87 22 385 92 555 131 95 22
237 51 255 53 13 1 16 -26 17 -191z m154 177 c116 -9 321 -41 464 -71 66 -15
131 -28 145 -31 14 -3 66 -13 117 -24 50 -10 137 -26 194 -34 129 -20 148 -29
89 -45 -25 -6 -52 -13 -60 -16 -8 -3 -75 -16 -150 -30 -74 -13 -184 -35 -245
-49 -60 -14 -145 -32 -187 -41 -43 -9 -78 -20 -78 -26 0 -5 -4 -7 -10 -3 -5 3
-71 -11 -147 -31 -76 -20 -161 -42 -190 -49 l-51 -13 -8 27 c-7 26 -12 126
-14 301 -2 101 11 156 34 147 7 -3 51 -8 97 -12z"/>
<path d="M3054 697 c4 -19 -1 -26 -27 -38 -18 -9 -96 -53 -174 -97 -79 -45
-146 -82 -150 -82 -3 0 -56 -29 -117 -64 -61 -35 -158 -89 -216 -119 -58 -30
-141 -73 -184 -96 -43 -24 -101 -51 -129 -62 -27 -11 -68 -32 -91 -48 -22 -15
-54 -31 -71 -36 -29 -7 -29 -8 -8 -17 18 -9 31 -5 70 20 26 16 71 40 98 52 28
12 75 35 105 50 206 105 334 172 390 205 36 20 106 57 155 82 50 25 104 55
120 68 17 12 41 26 54 30 13 4 64 32 113 61 49 30 92 54 96 54 4 0 14 4 21 9
12 8 11 13 -10 30 -33 28 -53 27 -45 -2z"/>
</g>
</svg>
