<?xml version="1.0" standalone="no"?>
<!DOCTYPE svg PUBLIC "-//W3C//DTD SVG 20010904//EN"
 "http://www.w3.org/TR/2001/REC-SVG-20010904/DTD/svg10.dtd">
<svg version="1.0" xmlns="http://www.w3.org/2000/svg"
 width="921.000000pt" height="786.000000pt" viewBox="0 0 921.000000 786.000000"
 preserveAspectRatio="xMidYMid meet">
<metadata>
Created by potrace 1.16, written by Peter Selinger 2001-2019
</metadata>
<g transform="translate(0.000000,786.000000) scale(0.100000,-0.100000)"
fill="#000000" stroke="none">
<path d="M5815 7504 c-16 -8 -48 -33 -70 -55 -28 -26 -50 -39 -68 -39 -34 0
-46 -26 -21 -45 17 -13 17 -14 2 -15 -10 0 -46 -26 -80 -58 -35 -32 -91 -81
-125 -110 -34 -29 -68 -65 -76 -80 -15 -30 -193 -247 -297 -362 -82 -91 -178
-207 -278 -335 -4 -5 -12 -20 -17 -32 -6 -12 -26 -32 -45 -45 -19 -13 -44 -42
-55 -65 -11 -23 -22 -41 -25 -40 -3 1 -25 -12 -49 -30 l-44 -32 -36 31 c-85
72 -300 288 -346 347 -65 82 -289 302 -385 378 -41 33 -95 82 -120 109 -25 28
-50 53 -56 57 -6 3 -35 -2 -65 -13 -29 -11 -64 -20 -76 -20 -13 0 -105 -19
-206 -41 -324 -73 -453 -107 -1182 -309 -137 -38 -358 -98 -490 -134 -132 -36
-382 -108 -555 -161 -366 -112 -486 -144 -671 -180 -154 -30 -179 -38 -179
-61 0 -14 10 -16 78 -9 148 13 350 63 907 225 187 54 453 128 590 164 138 37
414 109 615 162 201 53 430 113 510 134 227 59 559 132 628 137 44 4 62 10 62
20 0 7 66 -44 148 -115 118 -104 267 -253 452 -455 8 -9 72 -74 142 -145 149
-150 172 -178 165 -197 -7 -18 -43 -27 -257 -70 -96 -19 -193 -39 -215 -45
-22 -5 -110 -26 -196 -45 -86 -19 -183 -44 -215 -56 -33 -11 -115 -31 -184
-45 -69 -15 -161 -37 -204 -51 -75 -24 -212 -52 -351 -73 -65 -10 -110 -20
-165 -38 -19 -6 -73 -19 -120 -27 -47 -9 -98 -22 -115 -29 -16 -8 -84 -26
-150 -41 -66 -15 -154 -35 -195 -45 -41 -10 -163 -35 -270 -55 -107 -20 -215
-42 -240 -50 -25 -8 -88 -19 -140 -25 -52 -6 -100 -16 -106 -21 -9 -7 -20 -7
-34 1 -19 10 -26 8 -55 -20 -18 -18 -38 -29 -44 -26 -19 12 -49 -13 -57 -46
-9 -45 -38 -85 -137 -192 -46 -50 -132 -147 -193 -216 -60 -69 -219 -237 -354
-375 -240 -244 -331 -347 -329 -376 1 -27 55 -57 149 -83 155 -44 210 -55 305
-62 50 -4 95 -10 100 -14 11 -9 209 -37 350 -50 50 -4 106 -13 125 -19 19 -6
51 -11 70 -10 19 0 75 -5 123 -12 110 -16 137 -37 137 -108 0 -25 6 -86 14
-136 8 -49 20 -187 26 -305 17 -320 48 -742 69 -940 11 -96 22 -218 26 -270 3
-52 15 -167 26 -254 10 -88 19 -179 19 -203 0 -24 5 -43 10 -43 6 0 10 -7 10
-15 0 -8 -4 -15 -10 -15 -18 0 -11 -39 9 -49 12 -7 28 -7 49 1 28 11 48 3 323
-133 162 -80 342 -173 401 -207 135 -78 394 -208 433 -218 17 -4 87 -35 156
-70 70 -35 169 -81 220 -102 231 -97 766 -344 812 -375 64 -42 524 -249 545
-245 8 2 28 22 44 45 l31 42 -18 133 c-9 73 -21 171 -26 217 -5 47 -16 96 -25
109 -11 17 -14 36 -10 63 3 22 2 39 -2 39 -5 0 -12 48 -15 108 -3 59 -10 120
-16 135 -6 16 -11 98 -11 187 0 89 -5 171 -11 187 -15 38 -31 254 -58 783 -7
118 -14 640 -18 1160 -3 520 -6 1008 -7 1085 -1 86 3 141 9 143 6 1 27 -29 47
-68 41 -78 142 -221 223 -315 28 -33 68 -82 89 -110 21 -27 44 -54 52 -58 8
-4 14 -14 14 -21 0 -7 9 -21 20 -31 11 -10 33 -41 49 -70 17 -29 41 -62 55
-73 14 -11 26 -25 26 -31 0 -5 13 -25 29 -43 15 -18 31 -43 35 -54 4 -12 15
-29 26 -39 11 -10 20 -22 20 -28 0 -5 16 -31 35 -57 19 -26 35 -51 35 -54 0
-4 17 -33 37 -64 21 -31 40 -62 43 -68 3 -6 18 -26 33 -44 l28 -33 102 7 c56
3 116 8 132 10 33 4 204 72 219 87 6 5 21 9 34 9 32 0 149 35 210 62 26 12 52
20 59 19 6 -1 14 3 18 9 3 5 13 10 21 10 17 0 89 31 284 120 137 63 461 182
610 225 52 14 167 53 255 84 88 32 185 66 217 75 31 9 86 29 122 46 65 29 66
29 62 7 -3 -12 -10 -87 -16 -167 -5 -80 -12 -170 -15 -200 -2 -30 -11 -158
-19 -285 -8 -126 -20 -266 -27 -310 -22 -149 -14 -926 10 -1077 5 -30 5 -48
-2 -48 -8 0 -6 -80 3 -115 1 -5 2 -42 1 -80 l-1 -71 -77 -38 c-105 -51 -596
-331 -656 -373 -26 -18 -52 -33 -57 -33 -21 0 -147 -63 -362 -181 -404 -221
-432 -236 -548 -295 -63 -32 -185 -97 -270 -144 -230 -128 -396 -214 -475
-245 -93 -37 -142 -62 -280 -144 -64 -39 -140 -78 -168 -87 -65 -21 -72 -27
-58 -53 15 -28 52 -36 98 -20 44 14 213 113 229 135 6 8 17 14 24 14 27 0 504
223 528 247 7 7 18 13 24 13 5 0 92 45 192 99 101 55 221 117 267 139 46 21
147 75 224 119 77 44 259 144 405 221 422 222 688 369 785 434 50 32 116 68
148 78 64 21 127 56 127 71 0 5 8 9 18 9 26 0 52 32 52 63 0 22 -5 27 -24 27
-19 0 -45 15 -57 33 -2 4 -18 502 -24 797 -6 255 -4 334 15 585 12 160 23 380
24 490 0 110 5 203 9 206 10 8 27 119 27 184 l0 51 48 18 c26 10 103 38 172
63 69 24 138 50 155 58 16 7 45 16 64 19 18 3 102 33 185 65 291 115 364 139
401 137 65 -6 70 40 11 103 -17 18 -96 92 -176 164 -212 190 -279 257 -405
402 -62 72 -125 141 -140 155 -15 14 -38 48 -51 75 -14 28 -34 66 -46 86 l-22
36 57 79 c31 44 97 126 147 184 49 58 160 191 247 295 357 431 454 545 464
545 5 0 15 12 21 28 7 15 23 41 36 59 25 34 27 83 3 91 -18 6 -92 -74 -319
-344 -105 -126 -242 -285 -304 -353 -62 -67 -151 -169 -197 -225 -130 -157
-278 -343 -289 -362 -9 -16 -17 -16 -148 1 -77 9 -161 23 -189 30 -27 8 -84
17 -125 20 -86 8 -588 92 -765 129 -267 56 -367 78 -525 116 -181 43 -820 138
-1115 165 -205 18 -266 30 -298 56 -14 10 -37 19 -52 19 -15 0 -25 4 -23 9 2
5 65 80 141 166 75 87 233 270 350 408 116 138 283 325 370 415 87 91 172 184
189 208 17 24 40 44 50 44 10 0 136 -25 280 -56 145 -30 388 -75 540 -99 152
-24 334 -56 405 -71 543 -113 789 -160 794 -151 4 5 16 3 31 -7 13 -8 59 -21
101 -28 42 -6 77 -16 77 -20 0 -5 4 -7 9 -4 5 4 36 -1 68 -9 32 -8 123 -24
204 -34 80 -11 181 -28 225 -39 43 -11 146 -34 228 -52 143 -31 150 -32 163
-14 7 10 13 24 13 31 0 18 -85 59 -155 73 -33 7 -96 21 -140 31 -44 10 -136
28 -205 39 -69 11 -145 24 -170 30 -25 6 -63 10 -85 9 -22 -1 -53 4 -68 10
-16 6 -46 11 -67 11 -21 0 -41 4 -44 9 -3 5 -23 11 -43 14 -21 3 -69 12 -108
21 -38 9 -173 34 -300 56 -126 23 -295 54 -375 70 -225 45 -319 63 -390 70
-108 12 -852 142 -889 156 -11 3 -4 15 22 42 20 21 37 44 37 50 0 12 -57 42
-77 42 -4 0 -21 -7 -38 -16z m-1199 -1576 c-17 -150 -26 -451 -15 -515 7 -42
10 -113 6 -187 -7 -128 5 -294 28 -391 7 -33 11 -63 7 -66 -4 -4 -24 -10 -44
-13 -33 -6 -38 -5 -38 13 0 30 -16 34 -55 15 -30 -14 -44 -15 -97 -5 -79 14
-475 73 -718 106 -102 15 -288 48 -415 76 -430 93 -772 145 -1445 219 -439 49
-531 62 -518 76 3 2 81 18 174 35 171 30 466 91 649 134 55 13 129 28 165 35
36 6 169 38 295 70 127 32 311 75 410 95 99 20 216 45 260 57 44 11 107 26
140 33 33 7 146 35 250 63 105 27 231 57 280 66 50 10 124 26 165 38 76 21
455 95 499 97 22 1 23 -1 17 -51z m380 17 c126 -14 312 -37 414 -51 102 -14
217 -29 255 -35 130 -17 349 -60 640 -124 371 -83 747 -156 995 -194 290 -45
322 -52 308 -66 -25 -25 -616 -152 -780 -168 -20 -2 -43 -8 -50 -14 -7 -6 -40
-13 -73 -17 -60 -6 -126 -21 -420 -90 -82 -20 -199 -43 -260 -52 -60 -9 -114
-19 -120 -24 -5 -4 -29 -10 -53 -14 -24 -3 -53 -13 -65 -20 -12 -8 -49 -17
-82 -20 -33 -4 -71 -11 -85 -16 -14 -4 -50 -15 -80 -24 -30 -8 -93 -27 -140
-41 -47 -14 -112 -30 -145 -35 -77 -14 -278 -64 -378 -96 -129 -40 -136 -35
-157 91 -9 54 -34 576 -33 685 0 76 11 239 16 247 2 4 8 26 12 48 9 50 12 55
34 55 10 0 121 -11 247 -25z m3023 -536 c22 -8 36 -22 46 -46 8 -19 37 -58 64
-87 50 -51 94 -103 192 -224 28 -34 83 -91 123 -125 76 -67 181 -164 285 -263
l64 -61 -69 -23 c-38 -12 -159 -56 -269 -97 -110 -41 -292 -108 -405 -148
-113 -40 -293 -107 -401 -148 -107 -41 -361 -132 -565 -201 -362 -123 -534
-189 -824 -319 -169 -75 -653 -246 -723 -254 -59 -7 -74 4 -122 101 -20 39
-54 94 -74 121 -21 28 -67 95 -103 150 -59 89 -154 220 -294 400 -25 33 -55
65 -66 71 -12 6 -26 20 -32 30 -6 11 -43 62 -82 114 -39 52 -92 129 -118 170
l-46 75 46 7 c26 4 70 16 98 27 119 49 534 181 564 181 35 -1 237 51 315 80
30 12 61 16 83 13 20 -3 34 -1 34 5 0 6 19 13 43 17 23 3 62 12 87 20 79 23
182 44 269 55 46 5 98 14 115 19 17 6 58 15 91 21 33 7 70 16 83 21 29 11 317
69 346 69 12 0 32 7 44 16 15 10 22 11 22 3 0 -7 9 -5 26 6 18 12 70 21 171
31 142 13 215 29 663 140 179 44 262 53 319 33z m-6769 -207 c0 -4 17 -8 38
-9 35 0 318 -37 372 -48 14 -3 97 -12 185 -20 304 -27 657 -78 1030 -149 127
-24 257 -49 290 -55 135 -26 257 -50 378 -75 71 -15 295 -51 499 -82 204 -30
374 -57 379 -60 15 -9 -7 -39 -169 -232 -242 -289 -524 -643 -600 -755 -105
-154 -165 -277 -136 -277 15 0 44 22 44 34 0 8 6 16 13 19 8 3 46 54 85 114
132 200 189 275 514 671 92 111 188 232 214 267 37 50 50 62 56 51 13 -24 19
-326 21 -1196 4 -1253 16 -1736 46 -1805 8 -18 20 -174 36 -475 7 -117 30
-328 45 -405 13 -66 59 -409 55 -413 -4 -5 -254 108 -515 233 -254 122 -613
286 -735 335 -210 85 -502 218 -660 300 -450 233 -768 390 -836 411 -41 13
-79 27 -86 32 -6 4 -13 42 -15 85 -3 42 -9 102 -16 132 -23 113 -72 614 -77
780 -1 47 -9 141 -18 211 -9 69 -23 244 -32 390 -8 145 -23 340 -31 432 -9 92
-15 169 -13 171 6 5 116 -12 289 -44 85 -17 190 -32 233 -36 68 -5 76 -8 66
-21 -11 -13 -8 -14 24 -8 23 5 37 3 37 -3 0 -14 32 -20 152 -32 57 -6 132 -17
168 -24 153 -33 219 -45 275 -51 56 -6 106 -15 353 -65 142 -28 178 -33 206
-26 34 8 52 42 35 63 -19 23 -43 29 -204 58 -81 14 -212 41 -291 61 -80 19
-149 32 -155 29 -5 -4 -16 -2 -24 5 -7 6 -121 26 -252 45 -131 19 -258 38
-283 44 -25 6 -59 11 -76 11 -17 0 -58 8 -90 19 -33 10 -108 23 -169 30 -60 6
-222 31 -359 56 -138 25 -291 50 -340 55 -50 6 -140 19 -201 30 -60 11 -202
33 -314 50 -113 16 -258 42 -322 57 l-118 26 20 29 c11 15 140 153 287 307
287 299 476 504 593 643 66 77 99 104 99 80z"/>
<path d="M130 6114 c0 -30 30 -72 66 -93 79 -47 290 -233 583 -515 193 -185
299 -276 323 -276 57 0 -38 121 -233 295 -61 55 -175 158 -253 229 -282 257
-486 408 -486 360z"/>
</g>
</svg>
